<?xml version="1.0" encoding="utf-8"?>
<!-- Generator: Adobe Illustrator 16.0.0, SVG Export Plug-In . SVG Version: 6.00 Build 0)  -->
<!DOCTYPE svg PUBLIC "-//W3C//DTD SVG 1.1//EN" "http://www.w3.org/Graphics/SVG/1.1/DTD/svg11.dtd">
<svg version="1.1" id="Layer_1" xmlns="http://www.w3.org/2000/svg" xmlns:xlink="http://www.w3.org/1999/xlink" x="0px" y="0px"
	 width="81.344px" height="80px" viewBox="0 0 81.344 80" enable-background="new 0 0 81.344 80" xml:space="preserve">
<path fill="#435363" d="M80.457,64.166h-0.034l-0.632-0.967v1.367h-0.256v-1.785h0.273l0.637,0.979l0.632-0.979h0.267v1.785h-0.249
	v-1.367L80.457,64.166z M78.568,64.566h-0.255v-1.541h-0.574v-0.244h1.402v0.244h-0.573V64.566z"/>
<g>
	<defs>
		<rect id="SVGID_1_" x="-572.958" y="-294.475" width="1224" height="792"/>
	</defs>
	<clipPath id="SVGID_2_">
		<use xlink:href="#SVGID_1_"  overflow="visible"/>
	</clipPath>
	<path clip-path="url(#SVGID_2_)" fill="#435363" d="M0,70.974v-0.05c0-4.989,3.76-9.075,9.15-9.075c3.31,0,5.29,1.104,6.919,2.707
		l-2.457,2.833c-1.354-1.228-2.733-1.98-4.488-1.98c-2.958,0-5.089,2.457-5.089,5.466v0.05c0,3.009,2.081,5.516,5.089,5.516
		c2.006,0,3.234-0.803,4.613-2.056l2.457,2.482C14.39,78.796,12.385,80,9,80C3.836,80,0,76.014,0,70.974"/>
	<polygon clip-path="url(#SVGID_2_)" fill="#435363" points="21.249,62.15 25.109,62.15 25.109,69.094 32.229,69.094 32.229,62.15 
		36.091,62.15 36.091,79.699 32.229,79.699 32.229,72.654 25.109,72.654 25.109,79.699 21.249,79.699 	"/>
	<polygon clip-path="url(#SVGID_2_)" fill="#435363" points="42.302,62.155 55.751,62.155 55.751,65.644 46.199,65.644 
		46.199,69.26 54.604,69.26 54.604,72.75 46.199,72.75 46.199,76.494 55.878,76.494 55.878,79.983 42.302,79.983 	"/>
	<polygon clip-path="url(#SVGID_2_)" fill="#435363" points="61.5,62.15 74.861,62.15 74.861,65.66 65.359,65.66 65.359,69.395 
		73.733,69.395 73.733,72.905 65.359,72.905 65.359,79.699 61.5,79.699 	"/>
	<path clip-path="url(#SVGID_2_)" fill="#435363" d="M37.965,37.403c-6.404,0-11.615-5.21-11.615-11.614
		c0-6.405,5.211-11.616,11.615-11.616c5.287,0,9.756,3.551,11.157,8.392h4.494C52.12,15.294,45.672,9.81,37.965,9.81
		c-8.81,0-15.978,7.168-15.978,15.979c0,8.81,7.168,15.978,15.978,15.978c7.707,0,14.155-5.483,15.651-12.754h-4.494
		C47.721,33.853,43.252,37.403,37.965,37.403"/>
	<path clip-path="url(#SVGID_2_)" fill="#435363" d="M30.135,33.618c2.006,2.006,4.776,3.249,7.83,3.249v-4.631
		c-1.78,0-3.392-0.723-4.559-1.889L30.135,33.618z"/>
	<path clip-path="url(#SVGID_2_)" fill="#F38B00" d="M26.887,25.788c0,1.585,0.338,3.093,0.94,4.458l4.236-1.863
		c-0.35-0.794-0.546-1.671-0.546-2.595c0-3.561,2.887-6.447,6.447-6.447V14.71C31.856,14.71,26.887,19.68,26.887,25.788"/>
	<path clip-path="url(#SVGID_2_)" fill="#435363" d="M41.981,15.465l-1.68,4.317c1.372,0.535,2.517,1.522,3.245,2.782h5.016
		C47.572,19.313,45.124,16.692,41.981,15.465"/>
	<path clip-path="url(#SVGID_2_)" fill="#F38B00" d="M40.303,31.794l1.679,4.317c3.143-1.227,5.591-3.849,6.582-7.1h-5.016
		C42.818,30.272,41.674,31.26,40.303,31.794"/>
	<path clip-path="url(#SVGID_2_)" fill="#435363" d="M17.47,31.985c-0.073-0.242-0.143-0.486-0.208-0.732
		c-0.004-0.015-0.008-0.03-0.012-0.045c-0.06-0.228-0.115-0.456-0.168-0.686c-0.011-0.047-0.021-0.094-0.031-0.141
		c-0.044-0.197-0.084-0.396-0.123-0.595c-0.017-0.089-0.032-0.178-0.047-0.267c-0.028-0.159-0.056-0.317-0.081-0.478
		c-0.021-0.137-0.039-0.273-0.057-0.41c-0.126-0.934-0.194-1.883-0.193-2.844h-4.375c-0.001,1.048,0.065,2.083,0.188,3.105l0,0
		c0.002,0.022,0.006,0.044,0.009,0.066c0.034,0.278,0.072,0.556,0.115,0.831c0.012,0.076,0.025,0.152,0.038,0.229
		c0.038,0.226,0.077,0.452,0.121,0.677c0.022,0.12,0.048,0.238,0.073,0.357c0.037,0.179,0.075,0.358,0.116,0.536
		c0.036,0.156,0.075,0.312,0.115,0.468c0.035,0.139,0.069,0.278,0.106,0.417c0.05,0.184,0.103,0.366,0.156,0.549
		c0.022,0.076,0.042,0.154,0.065,0.229h0.002c0.302,0.999,0.66,1.974,1.076,2.918l4.009-1.763
		C18.019,33.624,17.721,32.814,17.47,31.985z"/>
	<path clip-path="url(#SVGID_2_)" fill="#F38B00" d="M37.965,47.204c-5.904,0-11.256-2.404-15.133-6.282l-3.099,3.099
		c4.667,4.667,11.111,7.557,18.232,7.557c13.151,0,24.001-9.844,25.588-22.565h-4.415C57.578,39.296,48.678,47.204,37.965,47.204"/>
	<path clip-path="url(#SVGID_2_)" fill="#F38B00" d="M37.965,4.374c4.797,0,9.228,1.585,12.802,4.26l2.621-3.513
		C49.086,1.905,43.748,0,37.965,0C27.022,0,17.672,6.816,13.928,16.435l4.081,1.588C21.124,10.042,28.895,4.374,37.965,4.374"/>
	<path clip-path="url(#SVGID_2_)" fill="#435363" d="M59.138,22.565h4.415c-0.473-3.795-1.771-7.334-3.709-10.432l-3.718,2.32
		C57.644,16.876,58.691,19.623,59.138,22.565"/>
	<path clip-path="url(#SVGID_2_)" fill="#F38B00" d="M54.164,22.565h4.43c-1.156-7.428-6.243-13.57-13.06-16.231l-1.582,4.068
		C49.136,12.426,53.057,16.993,54.164,22.565"/>
	<path clip-path="url(#SVGID_2_)" fill="#435363" d="M37.965,9.273L37.965,9.273l0.001-4.362h-0.001
		c-8.843,0-16.418,5.526-19.456,13.307l4.065,1.582C24.978,13.645,30.97,9.273,37.965,9.273"/>
	<path clip-path="url(#SVGID_2_)" fill="#F38B00" d="M21.45,25.788L21.45,25.788h-4.362l0,0c0,8.773,5.441,16.296,13.125,19.38
		l1.62-4.049C25.754,38.679,21.45,32.728,21.45,25.788"/>
	<path clip-path="url(#SVGID_2_)" fill="#435363" d="M37.965,42.303v4.363c10.416,0,19.074-7.668,20.629-17.655h-4.431
		C52.66,36.581,45.969,42.303,37.965,42.303"/>
</g>
</svg>
